<svg width="73" height="73" viewBox="0 0 73 73" fill="none" xmlns="http://www.w3.org/2000/svg">
<path d="M65.01 50.735C63.4359 54.231 62.6774 55.7937 60.6528 58.8791C57.8183 63.1906 53.8204 68.5744 48.8815 68.6086C44.4844 68.6485 43.3495 65.7399 37.3783 65.7912C31.4128 65.8198 30.1696 68.6656 25.7668 68.62C20.8221 68.5744 17.041 63.7267 14.2065 59.4208C6.27917 47.3473 5.44081 33.1922 10.3398 25.6641C13.8073 20.3259 19.288 17.1892 24.4379 17.1892C29.6848 17.1892 32.9812 20.0693 37.3156 20.0693C41.5245 20.0693 44.0852 17.1835 50.1533 17.1835C54.7386 17.1835 59.5863 19.6815 63.0538 23.993C51.716 30.2094 53.5581 46.4006 65.01 50.735ZM45.5452 12.3644C47.7523 9.52991 49.429 5.53202 48.8188 1.45999C45.2201 1.70523 41.0112 4.00359 38.5532 6.98062C36.3232 9.6953 34.4754 13.7217 35.194 17.6169C39.1235 17.7424 43.1898 15.3984 45.5452 12.3644Z" fill="#385888"/>
</svg>
